/* XPM */
static char * exit_open_xpm[] = {
"32 32 2 1",
"  c None",
". c #00FF00",
"                                ",
"                                ",
"            ........            ",
"            ........            ",
"            ..                  ",
"            ..                  ",
"            ..                  ",
"            ..                  ",
"            ........            ",
"            ........            ",
"            ..                  ",
"            ..                  ",
"            ..                  ",
"            ..                  ",
"            ........            ",
"            ........            ",
"                                ",
"                                ",
"                                ",
"                                ",
"                                ",
"                                ",
"                                ",
"                                ",
"                                ",
"                                ",
"                                ",
"                                ",
"                                ",
"                                ",
"                                ",
"                                "
}; 